<svg width="1544" height="315" viewBox="0 0 1544 315" fill="none" xmlns="http://www.w3.org/2000/svg">
<g clip-path="url(#clip0_2_4)">
<path d="M1435.51 211.065L1535.3 245H1392.12L1373.77 242.997L1364.87 237.434L1395.24 211.065H1435.51Z" fill="#172B4D"/>
<path d="M1422.38 148.758V143.417C1422.38 143.417 1410.7 120.275 1409.03 120.052C1407.36 119.83 1271.64 63.3083 1271.64 63.3083L1323.37 164.001L1343.84 185.808L1422.38 148.758Z" fill="white" stroke="#36B37E" stroke-width="1.35786" stroke-miterlimit="10"/>
<mask id="mask0_2_4" style="mask-type:alpha" maskUnits="userSpaceOnUse" x="1270" y="62" width="154" height="126">
<path d="M1422.8 149.363V144.022C1422.8 144.022 1411.12 120.879 1409.45 120.657C1407.78 120.434 1272.06 63.913 1272.06 63.913L1323.79 164.606L1344.26 186.413L1422.8 149.363Z" fill="white" stroke="#36B37E" stroke-width="1.35786" stroke-miterlimit="10"/>
</mask>
<g mask="url(#mask0_2_4)">
<path d="M1365.76 122.611L1348.74 123.168L1340.95 109.371L1324.6 110.15L1332.27 123.613L1316.03 124.169L1323.6 137.854L1339.95 137.52L1356.86 137.075L1365.09 151.317L1382.56 151.206L1391.23 165.892H1409.59L1400.58 150.983L1391.79 136.297L1374.1 136.742L1365.76 122.611Z" fill="#C5E9DA"/>
<path d="M1357.64 108.703L1349.63 95.1294L1333.16 96.0195L1340.95 109.371L1357.64 108.703Z" fill="#36B37E"/>
<path d="M1383.22 121.944L1374.77 107.925L1357.64 108.703L1365.76 122.611L1383.22 121.944Z" fill="#36B37E"/>
<path d="M1392.35 107.146L1383.78 93.2379L1366.54 94.128L1374.77 107.925L1392.35 107.146Z" fill="#36B37E"/>
<path d="M1401.13 121.387L1383.22 121.944L1391.79 136.297L1410.03 135.963L1428.72 135.518L1419.49 120.831L1410.48 106.367L1392.35 107.146L1401.13 121.387Z" fill="#36B37E"/>
<path d="M1308.69 110.817L1324.6 110.15L1317.14 96.7984L1333.16 96.0195L1325.6 82.7793L1309.8 83.7806L1294.34 84.782L1301.46 97.6885L1286.11 98.4673L1271.2 99.2461L1277.98 112.153L1293.11 111.485L1300.23 124.725L1316.03 124.169L1308.69 110.817Z" fill="#172B4D"/>
<path d="M1284.88 125.17L1291.89 138.522L1307.58 138.188L1300.23 124.725L1284.88 125.17Z" fill="#36B37E"/>
<path d="M1272.53 73.2107L1279.21 85.7833L1294.34 84.782L1287.33 72.0981L1272.53 73.2107Z" fill="#36B37E"/>
<path d="M1349.63 95.1294L1366.54 94.128L1358.42 80.6653L1350.52 67.425L1334.16 68.6489L1318.14 69.8728L1325.6 82.7793L1341.84 81.7779L1349.63 95.1294Z" fill="#36B37E"/>
<path d="M1392.9 78.44L1375.44 79.5527L1383.78 93.238L1401.58 92.3479L1392.9 78.44Z" fill="#36B37E"/>
<path d="M1428.95 105.588L1419.82 91.3465L1401.58 92.3478L1410.48 106.367L1428.95 105.588Z" fill="#36B37E"/>
<path d="M1307.58 138.188L1315.03 151.985L1331.27 151.762L1323.6 137.854L1307.58 138.188Z" fill="#36B37E"/>
</g>
<path d="M1392.12 145.198L1329.83 158.549L1328.27 162.666L1342.17 181.692L1392.12 145.198Z" fill="#172B4D"/>
<path d="M1427.72 149.426L1488.91 0.222504L1449.53 160.774L1445.3 162.221L1427.72 149.426Z" fill="white" stroke="#36B37E" stroke-width="1.35786" stroke-miterlimit="10"/>
<path d="M1449.86 159.328L1431.62 139.857L1427.72 149.425L1445.3 162.221L1449.53 160.774L1449.86 159.328Z" fill="#36B37E"/>
<path d="M1445.3 162.221L1432.73 151.539L1413.26 136.742L1363.98 156.546L1361.75 168.451L1373.77 185.475L1445.3 162.221Z" fill="white" stroke="#36B37E" stroke-width="1.35786" stroke-miterlimit="10"/>
<path d="M1420.05 170.343L1456.42 158.549L1435.51 211.065L1405.47 212.956L1420.05 170.343Z" fill="white" stroke="#36B37E" stroke-width="1.35786" stroke-miterlimit="10"/>
<path d="M1381 182.915L1373.77 185.475L1370.43 232.984L1373.77 242.997L1405.47 212.956L1420.05 170.343L1381 182.915Z" fill="white" stroke="#36B37E" stroke-width="1.35786" stroke-miterlimit="10"/>
<path d="M1478.34 151.539L1541.19 185.475L1381 182.916L1478.34 151.539Z" fill="#C5E9DA" stroke="#36B37E" stroke-width="1.35786" stroke-miterlimit="10"/>
<path d="M1373.77 185.475V177.686L1323.37 108.37L1316.7 118.94L1364.87 237.434L1370.43 232.984L1373.77 185.475Z" fill="white" stroke="#36B37E" stroke-width="1.35786" stroke-miterlimit="10"/>
<path d="M1323.37 108.37L1316.7 118.94L1294.23 139.857L1312.03 103.919L1323.37 108.37Z" fill="white" stroke="#36B37E" stroke-width="1.35786" stroke-miterlimit="10"/>
<path d="M1443.52 190.815L1381 182.915L1446.3 184.028L1443.52 190.815Z" fill="#172B4D"/>
<path d="M1387.79 180.801L1365.98 162.666L1365.09 165.781L1373.77 177.686V185.475L1387.79 180.801Z" fill="#172B4D"/>
<path d="M1360.2 226.085L1355.08 232.427L1348.4 226.085L1313.58 121.944L1316.7 118.94L1360.2 226.085Z" fill="#C5E9DA" stroke="#36B37E" stroke-width="1.35786" stroke-miterlimit="10"/>
</g>
<path d="M50.4243 314.82L278.862 311.866L190.341 287.513L200.318 266.408L256.935 258.638L242.433 255.275L203.451 253.536L50.4243 314.82Z" fill="#172B4D"/>
<path d="M176.767 207.034L169.806 207.15L111.913 185.58L177.347 222.689L188.02 213.876L176.767 207.034Z" fill="#36B37E"/>
<path d="M176.767 207.034L289.42 186.392L233.151 241.011L176.767 207.034Z" fill="#172B4D"/>
<path d="M111.913 185.58L224.334 249.477L199.042 254.115L137.089 258.638L111.913 185.58Z" fill="white" stroke="#36B37E" stroke-width="1.43685" stroke-miterlimit="10" stroke-linejoin="round"/>
<path d="M224.334 249.477L289.42 186.392L242.433 255.275L224.334 249.477Z" fill="white" stroke="#36B37E" stroke-width="1.43685" stroke-miterlimit="10" stroke-linejoin="round"/>
<path d="M177.347 222.689L206.467 198.684L209.484 201.119L200.318 235.793L177.347 222.689Z" fill="white" stroke="#36B37E" stroke-width="1.43685" stroke-miterlimit="10" stroke-linejoin="round"/>
<path d="M209.484 201.119L235.82 238.46L224.334 249.477L200.318 235.793L209.484 201.119Z" fill="white" stroke="#36B37E" stroke-width="1.43685" stroke-miterlimit="10" stroke-linejoin="round"/>
<path d="M242.433 255.275L199.042 254.116L224.334 249.477L242.433 255.275Z" fill="white" stroke="#36B37E" stroke-width="1.43685" stroke-miterlimit="10" stroke-linejoin="round"/>
<path d="M92.5379 237.417L83.2565 239.04L1.58008 222.573L96.7146 258.058L109.128 244.027L92.5379 237.417Z" fill="white" stroke="#36B37E" stroke-width="1.43685" stroke-miterlimit="10" stroke-linejoin="round"/>
<path d="M92.5379 237.417L238.256 186.392L174.794 270.467L92.5379 237.417Z" fill="#C5E9DA" stroke="#36B37E" stroke-width="1.43685" stroke-miterlimit="10"/>
<path d="M1.58008 222.573L165.049 283.455L132.216 295.051L50.5395 313.953L1.58008 222.573Z" fill="white" stroke="#36B37E" stroke-width="1.43685" stroke-miterlimit="10" stroke-linejoin="round"/>
<path d="M165.049 283.455L238.256 186.392L190.341 287.513L165.049 283.455Z" fill="white" stroke="#36B37E" stroke-width="1.43685" stroke-miterlimit="10" stroke-linejoin="round"/>
<path d="M96.7146 258.058L130.476 220.138L135 222.573L130.128 270.467L96.7146 258.058Z" fill="#36B37E"/>
<path d="M135 222.573L177.811 266.524L165.049 283.455L130.128 270.467L135 222.573Z" fill="white" stroke="#36B37E" stroke-width="1.43685" stroke-miterlimit="10" stroke-linejoin="round"/>
<path d="M190.341 287.513L132.216 295.051L165.049 283.455L190.341 287.513Z" fill="white" stroke="#36B37E" stroke-width="1.43685" stroke-miterlimit="10" stroke-linejoin="round"/>
<mask id="mask1_2_4" style="mask-type:alpha" maskUnits="userSpaceOnUse" x="0" y="222" width="166" height="92">
<path d="M1.37744 223.005L164.742 283.211L132.391 294.354L50.7142 313.257L1.37744 223.005Z" fill="white" stroke="#36B37E" stroke-width="1.43685" stroke-miterlimit="10" stroke-linejoin="round"/>
</mask>
<g mask="url(#mask1_2_4)">
<path d="M99.7312 285.889L81.9805 286.469L73.7433 272.206L56.6887 272.901L64.6939 287.049L47.8713 287.513L55.6445 301.777L72.8151 301.429L90.3338 300.965L98.9191 315.924L117.25 315.692L126.299 331H145.326L136.045 315.461L126.879 300.269L108.317 300.617L99.7312 285.889Z" fill="#C5E9DA"/>
<path d="M91.1459 271.394L82.7926 257.246L65.622 258.174L73.7432 272.206L91.1459 271.394Z" fill="#C5E9DA"/>
<path d="M117.83 285.31L109.129 270.582L91.1459 271.394L99.7312 285.889L117.83 285.31Z" fill="#36B37E"/>
<path d="M127.459 269.886L118.526 255.275L100.427 256.318L109.129 270.582L127.459 269.886Z" fill="#172B4D"/>
<path d="M136.509 284.614L117.83 285.31L126.879 300.269L145.79 299.805L165.281 299.341L155.652 284.034L146.254 269.074L127.459 269.886L136.509 284.614Z" fill="#36B37E"/>
<path d="M40.0981 273.597L56.6886 272.901L48.9154 259.102L65.622 258.174L57.7328 244.374L41.2583 245.418L25.1318 246.461L32.5569 259.913L16.6625 260.841L1.00012 261.653L8.0772 274.989L23.9716 274.293L31.3968 288.093L47.8713 287.513L40.0981 273.597Z" fill="#36B37E"/>
<path d="M15.2703 288.673L22.6954 302.472L38.9379 302.124L31.3967 288.093L15.2703 288.673Z" fill="#36B37E"/>
<path d="M2.39227 234.517L9.46935 247.505L25.1317 246.461L17.9386 233.357L2.39227 234.517Z" fill="#36B37E"/>
<path d="M82.7926 257.246L100.427 256.318L91.958 242.287L83.7207 228.487L66.6661 229.762L49.9596 230.922L57.7328 244.374L74.6714 243.33L82.7926 257.246Z" fill="#36B37E"/>
<path d="M128.039 239.967L109.825 241.127L118.526 255.275L137.089 254.347L128.039 239.967Z" fill="#36B37E"/>
<path d="M165.629 268.147L156 253.303L137.089 254.347L146.254 269.074L165.629 268.147Z" fill="#36B37E"/>
<path d="M38.9379 302.125L46.7111 316.504L63.6497 316.272L55.6445 301.777L38.9379 302.125Z" fill="#36B37E"/>
</g>
<defs>
<clipPath id="clip0_2_4">
<rect width="273" height="245" fill="white" transform="matrix(-1 0 0 1 1543.42 0)"/>
</clipPath>
</defs>
</svg>
