<svg width="1453" height="461" viewBox="0 0 1453 461" fill="none" xmlns="http://www.w3.org/2000/svg">
<g clip-path="url(#clip0_2_88)">
<path d="M314.531 388.423L318.542 380.078C318.644 379.867 318.817 379.698 319.03 379.601L379.722 352.067C380.017 351.933 380.358 351.951 380.638 352.114L410.959 369.795C411.73 370.245 411.571 371.402 410.708 371.627L333.934 391.634C333.819 391.664 333.701 391.673 333.583 391.662L315.333 389.852C314.642 389.783 314.23 389.049 314.531 388.423Z" fill="#172B4D"/>
<g clip-path="url(#clip1_2_88)">
<path d="M318.165 323.843L301.146 369.929L320.986 383.127L378.573 355.775L396.237 332.003L353.731 318.713L318.165 323.843Z" fill="white" stroke="#36B37E" stroke-width="1.63467" stroke-miterlimit="10" stroke-linejoin="round"/>
<path d="M338.19 342.382L340.083 346.368L378.573 355.775L381.205 352.173L396.237 332.003L353.731 318.713L338.19 342.382Z" fill="#C5E9DA" stroke="#36B37E" stroke-width="1.63467" stroke-miterlimit="10" stroke-linejoin="round"/>
<path d="M353.731 318.713L340.342 340.816L301.145 369.929" fill="white"/>
<path d="M353.731 318.713L340.342 340.816L301.145 369.929" stroke="#36B37E" stroke-width="1.63467" stroke-miterlimit="10" stroke-linejoin="round"/>
<path d="M333.217 346.01L335.041 335.372L345.185 332.725L340.083 346.369L333.217 346.01Z" fill="#172B4D" stroke="#36B37E" stroke-width="1.63467" stroke-miterlimit="10" stroke-linejoin="round"/>
<path d="M378.573 355.775L340.083 346.368" stroke="#36B37E" stroke-width="1.63467" stroke-miterlimit="10" stroke-linejoin="round"/>
<path d="M365.258 352.508L371.947 347.159L371.224 354.018L366.103 357.717L365.258 352.508Z" fill="white" stroke="#36B37E" stroke-width="1.63467" stroke-miterlimit="10" stroke-linejoin="round"/>
<path d="M371.947 347.159L370.298 323.874" stroke="#36B37E" stroke-width="1.63467" stroke-miterlimit="10" stroke-linejoin="round"/>
<mask id="mask0_2_88" style="mask-type:alpha" maskUnits="userSpaceOnUse" x="300" y="345" width="80" height="39">
<path d="M301.145 369.929L333.217 346.01L344.524 347.336L378.573 355.775L374.439 357.739L320.986 383.127L301.145 369.929Z" fill="white" stroke="#36B37E" stroke-width="1.63467" stroke-miterlimit="10" stroke-linejoin="round"/>
</mask>
<g mask="url(#mask0_2_88)">
<path d="M334.141 357.535L338.534 348.209L348.322 347.859L352.433 338.893L343.103 339.252L347.399 330.199L337.796 330.461L333.5 339.515L328.834 348.744L318.775 348.997L314.012 358.499L303.583 358.927L298.355 368.876L308.968 368.36L319.309 367.746L324.169 357.973L334.141 357.535Z" fill="#36B37E"/>
<path d="M343.928 357.184L353.628 356.649L357.652 347.499L348.321 347.858L343.928 357.184Z" fill="#36B37E"/>
<path d="M329.466 367.221L339.535 366.51L343.928 357.184L334.141 357.535L329.466 367.221Z" fill="#C5E9DA"/>
<path d="M334.86 376.196L344.744 375.573L349.235 365.975L339.535 366.51L334.86 376.196Z" fill="#36B37E"/>
<path d="M324.791 376.906L329.466 367.22L319.309 367.746L314.45 377.52L309.396 387.837L319.835 386.952L330.176 386.338L334.86 376.196L324.791 376.906Z" fill="#36B37E"/>
<path d="M356.633 330.111L352.433 338.893L361.764 338.533L357.652 347.499L366.983 347.139L370.91 338.261L374.741 329.655L365.779 329.839L369.697 321.418L373.431 313.084L364.654 313.181L360.736 321.602L351.502 321.69L347.399 330.199L356.633 330.111Z" fill="#36B37E"/>
<path d="M353.628 356.65L349.235 365.975L358.75 365.528L368.177 364.896L372.202 355.746L376.129 346.868L366.983 347.139L362.959 356.29L353.628 356.65Z" fill="#36B37E"/>
<path d="M350.226 384.733L354.629 374.951L344.744 375.573L340.342 385.356L350.226 384.733Z" fill="#36B37E"/>
<path d="M325.492 396.481L335.658 395.499L340.342 385.356L330.176 386.339L325.492 396.481Z" fill="#36B37E"/>
</g>
</g>
<g clip-path="url(#clip2_2_88)">
<path d="M128.599 373.792L30.9609 378.078C30.6 378.078 30.0582 378.26 29.6964 378.621L-2.86375 411.148C-3.22553 411.51 -3.4073 412.051 -3.40903 412.773L-2.03961 443.81C-2.0422 444.893 -1.14208 445.794 0.121556 445.612L83.8756 436.473C84.4175 436.291 84.9592 436.11 85.321 435.749L103.432 408.294L103.613 408.114L130.395 377.038C131.301 375.773 130.223 373.609 128.599 373.792Z" fill="#172B4D"/>
<path d="M89.1709 202.281L-20.771 210.937L-49.2615 254.881L-21.8518 370.44L10.5938 395.636L74.3491 390.633L85.942 357.449L118.733 321.451L89.1709 202.281Z" fill="white" stroke="#36B37E" stroke-width="1.55764" stroke-miterlimit="10" stroke-linejoin="round"/>
<path d="M85.9419 357.449L27.8667 254.162L89.1708 202.281L118.733 321.45L85.9419 357.449Z" fill="#C5E9DA" stroke="#36B37E" stroke-width="1.55764" stroke-miterlimit="10" stroke-linejoin="round"/>
<path d="M74.3492 390.633L59.5946 310.319L85.9421 357.449L74.3492 390.633Z" fill="white" stroke="#36B37E" stroke-width="1.55764" stroke-miterlimit="10" stroke-linejoin="round"/>
<path d="M-49.2614 254.882L27.8669 254.162" stroke="#36B37E" stroke-width="1.55764" stroke-miterlimit="10" stroke-linejoin="round"/>
<path d="M42.2378 241.965L21.0461 243.693L14.8312 254.222L37.9052 271.857L42.2378 241.965Z" fill="#C5E9DA" stroke="#36B37E" stroke-width="1.55764" stroke-miterlimit="10" stroke-linejoin="round"/>
<mask id="mask1_2_88" style="mask-type:alpha" maskUnits="userSpaceOnUse" x="-60" y="188" width="147" height="80">
<path d="M-3.29312 231.643L11.1332 235.954L20.7212 226.015L34.4256 230.327L24.8385 239.905L38.3629 244.037L28.9558 253.794L15.2505 249.843L1.18422 245.893L-8.9456 256.012L-23.7337 252.063L-34.2253 262.544L-49.7352 258.595L-38.7017 247.933L-28.2101 237.452L-13.4229 241.762L-3.29312 231.643Z" fill="#C5E9DA"/>
<path d="M6.83582 221.884L16.6039 212.126L30.3083 216.438L20.7212 226.015L6.83582 221.884Z" fill="#36B37E"/>
<path d="M-17.7193 227.332L-7.40943 217.392L6.83596 221.884L-3.293 231.643L-17.7193 227.332Z" fill="#36B37E"/>
<path d="M-22.0159 212.901L-11.706 202.962L2.71938 207.634L-7.40958 217.392L-22.0159 212.901Z" fill="#36B37E"/>
<path d="M47.589 234.46L34.4255 230.327L43.6518 220.75L30.3082 216.438L39.7145 207.041L52.6971 211.354L65.3188 215.667L56.6344 225.063L69.2569 229.016L81.6986 233.149L73.1951 242.364L60.5725 238.412L51.3463 247.989L38.3628 244.037L47.589 234.46Z" fill="#5E78A5"/>
<path d="M64.3298 251.941L55.4644 261.517L42.3001 257.746L51.3463 247.989L64.3298 251.941Z" fill="#36B37E"/>
<path d="M86.4442 210.766L77.9406 219.981L65.3189 215.667L74.1834 206.452L86.4442 210.766Z" fill="#36B37E"/>
<path d="M16.6039 212.126L2.7194 207.634L12.3066 198.056L22.0737 188.659L35.5973 193.152L48.7591 198.006L39.7146 207.041L26.191 202.548L16.6039 212.126Z" fill="#36B37E"/>
<path d="M42.3001 257.746L33.073 267.684L19.1868 263.913L28.9557 253.794L42.3001 257.746Z" fill="#36B37E"/>
</mask>
<g mask="url(#mask1_2_88)">
<path d="M-21.2905 211.457L88.2669 203.184L38.5313 243.951L20.1006 245.395L13.6977 255.327L-49.5464 255.166L-21.2905 211.457Z" fill="#36B37E" stroke="#36B37E" stroke-width="1.55764" stroke-miterlimit="10" stroke-linejoin="round"/>
</g>
</g>
<g clip-path="url(#clip3_2_88)">
<path d="M1327.28 476.708L1508.94 447.478L1609.49 431.299L1553.27 372.507L1288.94 415.039L1297.27 442.576L1327.28 476.708Z" fill="#172B4D"/>
<path d="M1490.62 -4.04525L1544.68 28.5089L1394.47 452.605L1327.28 476.708L1297.27 442.577L1288.94 415.039L1387.52 172.972L1411.46 150.785L1401.81 127.816L1446.16 14.567L1490.62 -4.04525Z" fill="white"/>
<mask id="mask2_2_88" style="mask-type:alpha" maskUnits="userSpaceOnUse" x="1288" y="-5" width="257" height="482">
<path d="M1490.62 -4.04525L1544.68 28.5089L1394.47 452.605L1327.28 476.708L1297.27 442.577L1288.94 415.039L1387.52 172.972L1411.46 150.785L1401.81 127.816L1446.16 14.567L1490.62 -4.04525Z" fill="white"/>
</mask>
<g mask="url(#mask2_2_88)">
<path d="M1379.77 215.932L1387.26 194.1L1408.3 190.944L1415.45 169.854L1394.63 172.974L1401.85 152.331L1381 155.228L1373.37 176.166L1365.58 197.587L1343.65 200.887L1335.3 223.086L1312.55 226.977L1303.67 250.177L1326.84 245.991L1349.59 242.101L1357.65 219.491L1379.77 215.932Z" fill="#C5E9DA"/>
<path d="M1401.18 212.257L1422.18 208.877L1429.08 187.6L1408.3 190.944L1401.18 212.257Z" fill="#36B37E"/>
<path d="M1371.87 238.059L1393.73 234.312L1401.18 212.257L1379.77 215.932L1371.87 238.059Z" fill="#36B37E"/>
<path d="M1386.12 256.85L1407.95 252.88L1415.14 230.637L1393.73 234.312L1386.12 256.85Z" fill="#172B4D"/>
<path d="M1363.88 261.115L1371.87 238.059L1349.59 242.101L1341.17 265.229L1332.62 289.064L1355.72 284.431L1378.4 280.094L1386.12 256.85L1363.88 261.115Z" fill="#172B4D"/>
<path d="M1422.26 149.507L1415.45 169.854L1435.82 166.806L1429.08 187.6L1449.45 184.552L1456 164.017L1462.18 144.001L1442.44 146.718L1448.88 126.889L1455.2 107.766L1435.62 110L1429.11 129.382L1408.93 132.171L1401.85 152.331L1422.26 149.507Z" fill="#36B37E"/>
<path d="M1415.59 112.307L1395.37 114.872L1388.26 134.809L1408.93 132.171L1415.59 112.307Z" fill="#172B4D"/>
<path d="M1422.18 208.877L1415.14 230.637L1436.11 227.034L1456.59 223.28L1463.04 202.074L1469.33 181.352L1449.45 184.552L1442.96 205.534L1422.18 208.877Z" fill="#36B37E"/>
<path d="M1422.2 271.671L1429.33 248.981L1407.95 252.88L1400.41 275.864L1422.2 271.671Z" fill="#36B37E"/>
<path d="M1370.3 303.857L1392.73 299.332L1400.41 275.864L1378.4 280.094L1370.3 303.857Z" fill="#36B37E"/>
<path d="M1388.26 134.809L1367.37 137.482L1359.67 157.974L1381 155.228L1388.26 134.809Z" fill="#36B37E"/>
</g>
<path d="M1490.62 -4.04525L1327.28 476.708L1394.47 452.605L1544.68 28.5089L1490.62 -4.04525Z" fill="#C5E9DA"/>
<path d="M1490.62 -4.04525L1544.68 28.5089L1394.47 452.605L1327.28 476.708L1297.27 442.577L1288.94 415.039L1387.52 172.972L1411.46 150.785L1401.81 127.816L1446.16 14.567L1490.62 -4.04525Z" stroke="#36B37E" stroke-width="1.57158" stroke-miterlimit="10" stroke-linejoin="round"/>
<path d="M1432.39 166.898L1453.32 183.011L1425.39 187.505L1432.39 166.898Z" fill="white"/>
<path d="M1490.16 182.584L1453.32 183.011L1432.39 166.898L1411.46 150.785" stroke="#36B37E" stroke-width="1.57158" stroke-miterlimit="10" stroke-linejoin="round"/>
<path d="M1453.32 183.011L1425.39 187.505L1397.28 270.639" stroke="#36B37E" stroke-width="1.57158" stroke-miterlimit="10" stroke-linejoin="round"/>
<path d="M1525.59 82.2306L1479.12 29.8913L1435.44 41.9607" stroke="#36B37E" stroke-width="1.57158" stroke-miterlimit="10" stroke-linejoin="round"/>
<path d="M1448.37 38.2759L1439.18 32.4214" stroke="#36B37E" stroke-width="1.57158" stroke-miterlimit="10" stroke-linejoin="round"/>
<path d="M1390.28 291.246L1354.02 255.369L1288.94 415.039L1297.27 442.577L1327.28 476.708L1390.28 291.246Z" fill="white" stroke="#36B37E" stroke-width="1.57158" stroke-miterlimit="10" stroke-linejoin="round"/>
<path d="M1445.34 311.492L1386.08 303.61L1381.33 282.603L1392.46 287.687L1445.34 311.492Z" fill="#172B4D"/>
</g>
</g>
<defs>
<clipPath id="clip0_2_88">
<rect width="1453" height="461" fill="white"/>
</clipPath>
<clipPath id="clip1_2_88">
<rect width="105.273" height="67.1849" fill="white" transform="translate(284 339.165) rotate(-25.4057)"/>
</clipPath>
<clipPath id="clip2_2_88">
<rect width="236" height="261.092" fill="white" transform="matrix(-0.707463 0.706751 0.706751 0.707463 18.9609 132)"/>
</clipPath>
<clipPath id="clip3_2_88">
<rect width="316.165" height="450.963" fill="white" transform="matrix(-0.987301 0.15886 0.15886 0.987301 1539.15 -13)"/>
</clipPath>
</defs>
</svg>
